<svg xmlns="http://www.w3.org/2000/svg" fill="none" viewBox="0 0 97 99" width="97" height="99">
<g filter="url(&quot;#filter0_d&quot;)">
<path fill="white" d="M 24.9521 43.27 H 17.3301 V 64 H 12.2031 V 43.27 H 4.68359 V 39.1172 H 24.9521 V 43.27 Z" />
<rect fill="white" x="4" y="20" width="4" height="14" />
<rect fill="white" transform="matrix(0.851787 0.523888 -0.901451 0.432882 45.6211 0.116699)" width="4.4173" height="46.1712" />
<rect fill="white" transform="matrix(-0.879702 0.475526 -0.877553 -0.47948 86.2814 22.6646)" width="4.57975" height="46.7355" />
<rect fill="white" transform="matrix(-0.999972 -0.00746825 0.0252788 -0.99968 85.5421 64.1238)" width="4.33736" height="41.2646" />
<rect fill="white" transform="matrix(0.0104782 -0.999945 0.999995 0.00309487 25.575 64.7075)" width="3.08827" height="59.9493" />
<rect fill="white" x="37" y="19" width="7" height="3" />
<rect fill="white" x="46" y="19" width="6" height="3" />
<rect fill="white" x="46" y="23" width="6" height="3" />
<rect fill="white" x="37" y="23" width="7" height="3" />
<path fill="white" d="M 22.6943 90 H 18.8857 V 82.0781 H 11.459 V 90 H 7.65039 V 71.5156 H 11.459 V 79.0059 H 18.8857 V 71.5156 H 22.6943 V 90 Z M 41.2168 81.1768 C 41.2168 82.9964 40.8952 84.5918 40.252 85.9629 C 39.6087 87.334 38.6862 88.3919 37.4844 89.1367 C 36.291 89.8815 34.9199 90.2539 33.3711 90.2539 C 31.8392 90.2539 30.4723 89.8857 29.2705 89.1494 C 28.0687 88.4131 27.1377 87.3636 26.4775 86.001 C 25.8174 84.6299 25.4831 83.0557 25.4746 81.2783 V 80.3643 C 25.4746 78.5446 25.8005 76.945 26.4521 75.5654 C 27.1123 74.1774 28.0391 73.1152 29.2324 72.3789 C 30.4342 71.6341 31.8053 71.2617 33.3457 71.2617 C 34.8861 71.2617 36.2529 71.6341 37.4463 72.3789 C 38.6481 73.1152 39.5749 74.1774 40.2266 75.5654 C 40.8867 76.945 41.2168 78.5404 41.2168 80.3516 V 81.1768 Z M 37.3574 80.3389 C 37.3574 78.4007 37.0104 76.9281 36.3164 75.9209 C 35.6224 74.9137 34.6322 74.4102 33.3457 74.4102 C 32.0677 74.4102 31.0817 74.9095 30.3877 75.9082 C 29.6937 76.8984 29.3424 78.3542 29.334 80.2754 V 81.1768 C 29.334 83.0641 29.681 84.5283 30.375 85.5693 C 31.069 86.6104 32.0677 87.1309 33.3711 87.1309 C 34.6491 87.1309 35.6309 86.6315 36.3164 85.6328 C 37.002 84.6257 37.349 83.1615 37.3574 81.2402 V 80.3389 Z M 56.8066 74.6006 H 51.1445 V 90 H 47.3359 V 74.6006 H 41.75 V 71.5156 H 56.8066 V 74.6006 Z M 70.1113 81.9893 H 62.7988 V 86.9404 H 71.3809 V 90 H 58.9902 V 71.5156 H 71.3555 V 74.6006 H 62.7988 V 79.0059 H 70.1113 V 81.9893 Z M 77.4238 86.9404 H 85.5107 V 90 H 73.6152 V 71.5156 H 77.4238 V 86.9404 Z" />
</g>
<defs>
<filter id="filter0_d" color-interpolation-filters="sRGB" x="0" y="0.116699" width="90.5852" height="98.1372" filterUnits="userSpaceOnUse">
<feFlood flood-opacity="0" result="BackgroundImageFix" />
<feColorMatrix in="SourceAlpha" type="matrix" values="0 0 0 0 0 0 0 0 0 0 0 0 0 0 0 0 0 0 127 0" />
<feOffset dy="4" />
<feGaussianBlur stdDeviation="2" />
<feColorMatrix type="matrix" values="0 0 0 0 0 0 0 0 0 0 0 0 0 0 0 0 0 0 0.25 0" />
<feBlend result="effect1_dropShadow" in2="BackgroundImageFix" mode="normal" />
<feBlend result="shape" in="SourceGraphic" in2="effect1_dropShadow" mode="normal" />
</filter>
</defs>
</svg>